<svg width="2168" height="2261" xmlns="http://www.w3.org/2000/svg" xmlns:xlink="http://www.w3.org/1999/xlink" xml:space="preserve" overflow="hidden"><defs><clipPath id="clip0"><rect x="1116" y="87" width="2168" height="2261"/></clipPath></defs><g clip-path="url(#clip0)" transform="translate(-1116 -87)"><path d="M1416.08 2110.71C1455.66 2110.71 1470.74 2135.18 1476.4 2154L1448.12 2161.53C1446.24 2152.12 1438.7 2137.06 1417.97 2137.06 1402.89 2137.06 1391.58 2146.47 1391.58 2157.77 1391.58 2167.18 1397.23 2174.71 1408.54 2176.59L1431.16 2182.24C1461.32 2187.88 1478.28 2206.71 1478.28 2231.18 1478.28 2255.65 1457.55 2282 1417.97 2282 1374.62 2282 1355.77 2253.76 1352 2231.18L1382.16 2223.65C1384.04 2240.59 1395.35 2253.76 1417.97 2253.76 1434.93 2253.76 1444.35 2246.24 1444.35 2233.06 1444.35 2223.65 1436.81 2216.12 1423.62 2214.24L1401 2208.59C1374.62 2202.94 1357.65 2186 1357.65 2161.53 1359.54 2131.41 1385.93 2110.71 1416.08 2110.71ZM1549.9 2157.77C1580.06 2157.77 1598.91 2176.59 1602.67 2195.41L1574.4 2204.82C1572.52 2195.41 1564.98 2186 1549.9 2186 1532.94 2186 1519.74 2197.29 1519.74 2218 1519.74 2238.71 1532.94 2250 1549.9 2250 1564.98 2250 1574.4 2238.71 1576.29 2231.18L1604.56 2240.59C1598.91 2259.41 1581.94 2278.24 1551.79 2278.24 1517.86 2278.24 1491.47 2253.76 1491.47 2218 1491.47 2182.24 1515.98 2157.77 1549.9 2157.77ZM1804.35 2157.77C1838.27 2157.77 1864.66 2182.24 1864.66 2218 1864.66 2251.88 1838.27 2278.24 1804.35 2278.24 1770.42 2278.24 1744.03 2253.76 1744.03 2218 1744.03 2182.24 1770.42 2157.77 1804.35 2157.77ZM1934.4 2157.77C1968.32 2157.77 1994.71 2182.24 1994.71 2218 1994.71 2251.88 1968.32 2278.24 1934.4 2278.24 1900.47 2278.24 1874.08 2253.76 1874.08 2218 1874.08 2182.24 1902.35 2157.77 1934.4 2157.77ZM2045.6 2108.82 2045.6 2276.35 2015.44 2276.35 2015.44 2108.82 2045.6 2108.82ZM1651.68 2108.82 1651.68 2170.94C1659.22 2163.41 1672.41 2157.77 1681.84 2157.77 1710.11 2157.77 1725.19 2178.47 1725.19 2202.94L1725.19 2274.47 1695.03 2274.47 1695.03 2208.59C1695.03 2195.41 1689.37 2186 1674.3 2186 1661.1 2186 1653.56 2195.41 1653.56 2208.59L1653.56 2276.35 1623.41 2276.35 1623.41 2108.82 1651.68 2108.82ZM1934.4 2187.88C1919.32 2187.88 1906.12 2199.18 1906.12 2219.88 1906.12 2240.59 1921.2 2251.88 1934.4 2251.88 1949.47 2251.88 1962.67 2240.59 1962.67 2219.88 1962.67 2197.29 1949.47 2187.88 1934.4 2187.88ZM1804.35 2187.88C1789.27 2187.88 1776.07 2199.18 1776.07 2219.88 1776.07 2240.59 1791.15 2251.88 1804.35 2251.88 1819.42 2251.88 1832.62 2240.59 1832.62 2219.88 1832.62 2197.29 1817.54 2187.88 1804.35 2187.88ZM1996.59 1926.24C2013.56 1926.24 2024.86 1933.77 2028.63 1941.29L2028.63 1928.12 2058.79 1928.12 2058.79 2029.77C2058.79 2059.88 2041.83 2090 1998.48 2090 1968.32 2090 1945.7 2071.18 1941.93 2048.59L1970.21 2042.94C1972.09 2056.12 1981.51 2063.65 1996.59 2063.65 2015.44 2063.65 2026.75 2054.24 2026.75 2031.65L2026.75 2024.12C2021.09 2031.65 2011.67 2039.18 1994.71 2039.18 1964.55 2039.18 1941.93 2014.71 1941.93 1982.71 1943.82 1952.59 1964.55 1926.24 1996.59 1926.24ZM1625.29 1926.24C1661.1 1926.24 1674.3 1946.94 1674.3 1969.53L1674.3 2026C1674.3 2031.65 1676.18 2041.06 1676.18 2042.94L1647.91 2042.94C1646.02 2039.18 1646.02 2033.53 1646.02 2027.88 1640.37 2037.29 1629.06 2044.82 1612.1 2044.82 1587.6 2044.82 1572.52 2027.88 1572.52 2010.94 1572.52 1992.12 1587.6 1980.82 1606.44 1977.06L1634.72 1971.41C1640.37 1969.53 1642.26 1965.77 1642.26 1963.88 1642.26 1956.35 1636.6 1948.82 1623.41 1948.82 1610.21 1948.82 1602.67 1956.35 1602.67 1967.65L1574.4 1962C1578.17 1946.94 1593.25 1926.24 1625.29 1926.24ZM2132.3 1926.24C2168.11 1926.24 2188.84 1948.82 2188.84 1986.47L2188.84 1995.88 2105.91 1995.88C2107.79 2010.94 2119.1 2022.24 2134.18 2022.24 2149.26 2022.24 2156.8 2014.71 2160.57 2005.29L2188.84 2012.82C2183.19 2033.53 2164.34 2048.59 2136.07 2048.59 2105.91 2048.59 2075.75 2026 2075.75 1988.35 2075.75 1948.82 2104.02 1926.24 2132.3 1926.24ZM1875.97 1926.24C1911.78 1926.24 1924.97 1946.94 1924.97 1969.53L1924.97 2026C1924.97 2031.65 1926.86 2041.06 1926.86 2042.94L1898.58 2042.94C1896.7 2039.18 1896.7 2033.53 1896.7 2027.88 1891.05 2037.29 1879.74 2044.82 1862.77 2044.82 1838.27 2044.82 1823.19 2027.88 1823.19 2010.94 1821.31 1992.12 1838.27 1980.82 1857.12 1977.06L1885.39 1971.41C1891.05 1969.53 1892.93 1965.77 1892.93 1963.88 1892.93 1956.35 1887.28 1948.82 1874.08 1948.82 1860.89 1948.82 1853.35 1956.35 1853.35 1967.65L1825.08 1962C1830.73 1946.94 1845.81 1926.24 1875.97 1926.24ZM2456.48 1926.24C2492.29 1926.24 2513.02 1948.82 2513.02 1986.47L2513.02 1995.88 2430.09 1995.88C2431.98 2010.94 2443.28 2022.24 2458.36 2022.24 2473.44 2022.24 2480.98 2014.71 2484.75 2005.29L2513.02 2012.82C2507.37 2033.53 2488.52 2048.59 2460.25 2048.59 2430.09 2048.59 2399.93 2026 2399.93 1988.35 2401.82 1948.82 2428.21 1926.24 2456.48 1926.24ZM2597.84 1928.12C2626.11 1928.12 2639.3 1948.82 2639.3 1973.29L2639.3 2044.82 2609.14 2044.82 2609.14 1978.94C2609.14 1965.77 2603.49 1956.35 2588.41 1956.35 2575.22 1956.35 2567.68 1967.65 2567.68 1980.82L2567.68 2044.82 2537.52 2044.82 2537.52 1930 2567.68 1930 2567.68 1945.06C2571.45 1933.77 2584.64 1928.12 2597.84 1928.12ZM1762.88 1928.12C1791.15 1928.12 1804.35 1948.82 1804.35 1973.29L1804.35 2044.82 1774.19 2044.82 1774.19 1978.94C1774.19 1965.77 1768.54 1956.35 1753.46 1956.35 1740.26 1956.35 1732.72 1967.65 1732.72 1980.82L1732.72 2044.82 1700.68 2044.82 1700.68 1930 1730.84 1930 1730.84 1945.06C1736.49 1933.77 1749.69 1928.12 1762.88 1928.12ZM2343.39 1928.12C2364.12 1928.12 2384.86 1941.29 2384.86 1971.41L2384.86 2044.82 2354.7 2044.82 2354.7 1977.06C2354.7 1965.77 2349.05 1956.35 2333.97 1956.35 2320.77 1956.35 2313.23 1967.65 2313.23 1978.94L2313.23 2044.82 2283.08 2044.82 2283.08 1977.06C2283.08 1965.77 2277.42 1956.35 2262.35 1956.35 2249.15 1956.35 2241.61 1965.77 2241.61 1978.94L2241.61 2044.82 2209.57 2044.82 2209.57 1930 2239.73 1930 2239.73 1945.06C2245.38 1933.77 2260.46 1928.12 2273.65 1928.12 2288.73 1928.12 2301.93 1935.65 2307.58 1946.94 2317 1933.77 2328.31 1928.12 2343.39 1928.12ZM1408.54 1881.06 1457.55 1999.65 1504.67 1881.06 1549.9 1881.06 1549.9 2044.82 1517.86 2044.82 1517.86 1930 1470.74 2044.82 1444.35 2044.82 1397.23 1930 1397.23 2044.82 1367.08 2044.82 1367.08 1881.06 1408.54 1881.06ZM2703.38 1894.24 2703.38 1930 2726 1930 2726 1958.24 2703.38 1958.24 2703.38 2005.29C2703.38 2014.71 2709.04 2018.47 2716.58 2018.47 2720.35 2018.47 2724.12 2018.47 2726 2016.59L2726 2041.06C2724.12 2042.94 2718.46 2042.94 2709.04 2042.94 2686.42 2042.94 2673.23 2029.77 2673.23 2007.18L2673.23 1954.47 2652.49 1954.47 2652.49 1926.24 2658.15 1926.24C2669.46 1926.24 2675.11 1918.71 2675.11 1909.29L2675.11 1894.24 2703.38 1894.24ZM1644.14 1994 1617.75 1997.77C1610.21 1999.65 1602.67 2003.41 1602.67 2012.82 1602.67 2020.35 1608.33 2026 1617.75 2026 1630.95 2026 1642.26 2020.35 1642.26 1999.65L1642.26 1994ZM1894.81 1994 1868.43 1997.77C1860.89 1999.65 1853.35 2003.41 1853.35 2012.82 1853.35 2020.35 1859 2026 1868.43 2026 1883.51 2026 1894.81 2020.35 1894.81 1999.65L1894.81 1994ZM2002.25 1956.35C1987.17 1956.35 1973.98 1967.65 1973.98 1984.59 1973.98 2001.53 1985.28 2012.82 2002.25 2012.82 2019.21 2012.82 2030.52 2001.53 2030.52 1984.59 2030.52 1967.65 2017.33 1956.35 2002.25 1956.35ZM2458.36 1952.59C2443.28 1952.59 2433.86 1963.88 2433.86 1975.18L2482.86 1975.18C2484.75 1962 2475.33 1952.59 2458.36 1952.59ZM2134.18 1952.59C2119.1 1952.59 2109.68 1963.88 2109.68 1975.18L2158.68 1975.18C2158.68 1962 2151.14 1952.59 2134.18 1952.59ZM1687.49 1694.71C1721.42 1694.71 1747.8 1719.18 1747.8 1754.94 1747.8 1788.82 1721.42 1815.18 1687.49 1815.18 1653.56 1815.18 1627.18 1790.71 1627.18 1754.94 1627.18 1719.18 1653.56 1694.71 1687.49 1694.71ZM2367.89 1694.71C2401.82 1694.71 2428.21 1719.18 2428.21 1754.94 2428.21 1788.82 2401.82 1815.18 2367.89 1815.18 2333.97 1815.18 2307.58 1790.71 2307.58 1754.94 2307.58 1719.18 2335.85 1694.71 2367.89 1694.71ZM2100.26 1694.71C2136.07 1694.71 2149.26 1715.41 2149.26 1738L2149.26 1794.47C2149.26 1800.12 2151.14 1809.53 2151.14 1811.41L2122.87 1811.41C2120.99 1807.65 2120.99 1802 2120.99 1798.24 2115.33 1807.65 2104.02 1815.18 2087.06 1815.18 2062.56 1815.18 2047.48 1798.24 2047.48 1781.29 2045.6 1762.47 2062.56 1751.18 2081.41 1747.41L2109.68 1741.76C2115.33 1739.88 2117.22 1736.12 2117.22 1734.24 2117.22 1726.71 2111.56 1719.18 2098.37 1719.18 2085.18 1719.18 2077.64 1726.71 2077.64 1738L2049.37 1732.35C2053.14 1715.41 2068.21 1694.71 2100.26 1694.71ZM1985.28 1696.59C2006.02 1696.59 2026.75 1709.76 2026.75 1739.88L2026.75 1813.29 1996.59 1813.29 1996.59 1745.53C1996.59 1734.24 1990.94 1724.82 1975.86 1724.82 1962.67 1724.82 1955.13 1736.12 1955.13 1747.41L1955.13 1813.29 1924.97 1813.29 1924.97 1745.53C1924.97 1734.24 1919.32 1724.82 1904.24 1724.82 1891.05 1724.82 1883.51 1734.24 1883.51 1747.41L1883.51 1813.29 1853.35 1813.29 1853.35 1698.47 1883.51 1698.47 1883.51 1713.53C1889.16 1702.24 1904.24 1696.59 1917.43 1696.59 1932.51 1696.59 1945.7 1704.12 1951.36 1715.41 1958.9 1702.24 1972.09 1696.59 1985.28 1696.59ZM1834.5 1698.47 1834.5 1730.47 1825.08 1730.47C1810 1730.47 1794.92 1738 1794.92 1762.47L1794.92 1815.18 1764.77 1815.18 1764.77 1700.35 1794.92 1700.35 1794.92 1717.29C1802.46 1702.24 1817.54 1700.35 1826.96 1700.35L1834.5 1700.35 1834.5 1698.47ZM1608.33 1643.88C1613.98 1643.88 1621.52 1645.76 1623.41 1645.76L1623.41 1672.12C1621.52 1672.12 1617.75 1670.24 1613.98 1670.24 1606.44 1670.24 1597.02 1674 1597.02 1685.29L1597.02 1698.47 1623.41 1698.47 1623.41 1724.82 1597.02 1724.82 1597.02 1813.29 1566.86 1813.29 1566.86 1724.82 1548.02 1724.82 1548.02 1698.47 1566.86 1698.47 1566.86 1685.29C1566.86 1660.82 1581.94 1643.88 1608.33 1643.88ZM2511.14 1696.59C2539.41 1696.59 2552.6 1717.29 2552.6 1741.76L2552.6 1813.29 2522.44 1813.29 2522.44 1747.41C2522.44 1734.24 2516.79 1724.82 2501.71 1724.82 2488.52 1724.82 2480.98 1736.12 2480.98 1749.29L2480.98 1815.18 2450.82 1815.18 2450.82 1700.35 2480.98 1700.35 2480.98 1715.41C2484.75 1702.24 2497.94 1696.59 2511.14 1696.59ZM1491.47 1696.59C1519.74 1696.59 1532.94 1717.29 1532.94 1741.76L1532.94 1813.29 1502.78 1813.29 1502.78 1747.41C1502.78 1734.24 1497.13 1724.82 1482.05 1724.82 1468.86 1724.82 1461.32 1736.12 1461.32 1749.29L1461.32 1815.18 1431.16 1815.18 1431.16 1700.35 1461.32 1700.35 1461.32 1715.41C1466.97 1702.24 1480.16 1696.59 1491.47 1696.59ZM2288.73 1698.47 2288.73 1813.29 2258.58 1813.29 2258.58 1698.47 2288.73 1698.47ZM2213.34 1662.71 2213.34 1698.47 2235.96 1698.47 2235.96 1726.71 2213.34 1726.71 2213.34 1773.76C2213.34 1783.18 2219 1786.94 2226.53 1786.94 2230.3 1786.94 2234.07 1786.94 2235.96 1785.06L2235.96 1809.53C2234.07 1811.41 2228.42 1811.41 2219 1811.41 2196.38 1811.41 2183.19 1798.24 2183.19 1775.65L2183.19 1722.94 2162.45 1722.94 2162.45 1694.71 2168.11 1694.71C2179.42 1694.71 2185.07 1687.18 2185.07 1677.76L2185.07 1662.71 2213.34 1662.71ZM1397.23 1647.65 1397.23 1811.41 1365.19 1811.41 1365.19 1647.65 1397.23 1647.65ZM2119.1 1762.47 2092.72 1766.24C2085.18 1768.12 2077.64 1771.88 2077.64 1781.29 2077.64 1788.82 2083.29 1794.47 2092.72 1794.47 2105.91 1794.47 2117.22 1788.82 2117.22 1768.12L2117.22 1762.47ZM2367.89 1724.82C2352.81 1724.82 2339.62 1736.12 2339.62 1756.82 2339.62 1777.53 2354.7 1788.82 2367.89 1788.82 2382.97 1788.82 2396.17 1777.53 2396.17 1756.82 2398.05 1734.24 2382.97 1724.82 2367.89 1724.82ZM1687.49 1724.82C1672.41 1724.82 1659.22 1736.12 1659.22 1756.82 1659.22 1777.53 1674.3 1788.82 1687.49 1788.82 1700.68 1788.82 1715.76 1777.53 1715.76 1756.82 1715.76 1734.24 1702.57 1724.82 1687.49 1724.82ZM2273.65 1642C2284.96 1642 2292.5 1649.53 2292.5 1660.82 2292.5 1672.12 2284.96 1679.65 2273.65 1679.65 2262.35 1679.65 2254.81 1672.12 2254.81 1660.82 2254.81 1649.53 2262.35 1642 2273.65 1642Z" fill-rule="evenodd"/><path d="M1116 1642 1248 1642 1248 2348 1116 2348Z" fill-rule="evenodd"/><path d="M1116 846 2549 846 2549 1589 1116 1589Z" fill-rule="evenodd"/><path d="M2207.49 991C2318.69 991 2360.15 1057.06 2369.58 1106.14L2279.11 1130.68C2275.34 1109.91 2258.38 1075.94 2205.6 1075.94 2167.91 1075.94 2145.29 1098.59 2145.29 1123.12 2145.29 1143.89 2158.49 1158.99 2188.64 1164.65L2248.95 1175.98C2333.77 1191.08 2379 1243.93 2379 1306.21 2379 1374.16 2320.57 1444 2215.03 1444 2092.52 1444 2039.75 1366.61 2034.09 1304.33L2124.56 1283.56C2128.33 1323.2 2154.72 1359.06 2216.91 1359.06 2256.49 1359.06 2279.11 1340.19 2279.11 1313.76 2279.11 1291.11 2260.26 1276.01 2231.99 1270.35L2171.68 1259.03C2096.29 1245.81 2051.05 1196.74 2051.05 1132.56 2049.17 1049.51 2122.67 991 2207.49 991ZM1366.89 1000.44 1366.89 1434.56 1267 1434.56 1267 1000.44 1366.89 1000.44ZM1593.06 1000.44 1715.57 1293 1832.42 1000.44 1968.13 1000.44 1968.13 1434.56 1870.12 1434.56 1870.12 1147.66 1753.26 1434.56 1672.22 1434.56 1555.37 1151.44 1555.37 1434.56 1461.13 1434.56 1461.13 1000.44 1593.06 1000.44Z" fill="#FFFFFF" fill-rule="evenodd"/><path d="M1116 87 3284 87 3284 793 1116 793Z" fill-rule="evenodd"/><path d="M2026.75 200C2164.34 200 2279.32 299.915 2279.32 454.5 2279.32 609.086 2162.45 709 2026.75 709 1889.15 709 1774.18 609.086 1774.18 454.5 1772.29 298.03 1887.27 200 2026.75 200ZM1417.94 209.426 1600.77 505.4 1600.77 209.426 1710.09 209.426 1710.09 697.689 1595.11 697.689 1395.32 377.208 1395.32 697.689 1286 697.689 1286 209.426 1417.94 209.426ZM2394.29 209.426 2513.04 552.53 2628.01 209.426 2742.99 209.426 2565.81 697.689 2452.72 697.689 2275.55 209.426 2394.29 209.426ZM2971.05 211.311 3152 699.574 3033.25 699.574 2997.44 601.545 2808.96 601.545 2775.03 697.689 2661.94 697.689 2844.77 209.426 2971.05 209.426ZM2026.75 305.57C1958.89 305.57 1885.38 352.7 1885.38 452.615 1883.5 554.415 1958.89 599.659 2026.75 599.659 2094.6 599.659 2168.11 554.415 2168.11 452.615 2166.22 350.815 2094.6 305.57 2026.75 305.57ZM2905.08 331.963 2844.77 499.745 2963.52 499.745 2905.08 331.963Z" fill="#FFFFFF" fill-rule="evenodd"/></g></svg>